<mxfile host="app.diagrams.net" agent="Mozilla/5.0 (Windows NT 10.0; Win64; x64) AppleWebKit/537.36 (KHTML, like Gecko) Chrome/133.0.0.0 Safari/537.36" version="26.0.13">
  <diagram name="Page-1" id="8GMkRDJzHsfyiTVS9Shm">
    <mxGraphModel dx="2840" dy="1535" grid="1" gridSize="10" guides="1" tooltips="1" connect="1" arrows="1" fold="1" page="1" pageScale="1" pageWidth="850" pageHeight="1100" math="0" shadow="0">
      <root>
        <mxCell id="0" />
        <mxCell id="1" parent="0" />
        <mxCell id="oSqDqilmN8L3rwGm9tbF-9" value="" style="group" vertex="1" connectable="0" parent="1">
          <mxGeometry x="10" y="470" width="210" height="160" as="geometry" />
        </mxCell>
        <mxCell id="oSqDqilmN8L3rwGm9tbF-1" value="&lt;font style=&quot;font-size: 18px;&quot;&gt;Web/Mobile&lt;br&gt;Client&lt;/font&gt;" style="rounded=1;whiteSpace=wrap;html=1;verticalAlign=bottom;spacingBottom=10;fillColor=#f5f5f5;strokeColor=#666666;fontColor=#333333;" vertex="1" parent="oSqDqilmN8L3rwGm9tbF-9">
          <mxGeometry width="210" height="160" as="geometry" />
        </mxCell>
        <mxCell id="oSqDqilmN8L3rwGm9tbF-2" value="" style="outlineConnect=0;dashed=0;verticalLabelPosition=bottom;verticalAlign=top;align=center;html=1;shape=mxgraph.aws3.management_console;fillColor=#D2D3D3;gradientColor=none;" vertex="1" parent="oSqDqilmN8L3rwGm9tbF-9">
          <mxGeometry x="40" y="30" width="63" height="63" as="geometry" />
        </mxCell>
        <mxCell id="oSqDqilmN8L3rwGm9tbF-3" value="" style="outlineConnect=0;dashed=0;verticalLabelPosition=bottom;verticalAlign=top;align=center;html=1;shape=mxgraph.aws3.mobile_client;fillColor=#D2D3D3;gradientColor=none;" vertex="1" parent="oSqDqilmN8L3rwGm9tbF-9">
          <mxGeometry x="130" y="30" width="40.5" height="63" as="geometry" />
        </mxCell>
        <mxCell id="oSqDqilmN8L3rwGm9tbF-12" style="edgeStyle=orthogonalEdgeStyle;rounded=0;orthogonalLoop=1;jettySize=auto;html=1;exitX=1;exitY=0.5;exitDx=0;exitDy=0;entryX=-0.005;entryY=0.528;entryDx=0;entryDy=0;entryPerimeter=0;" edge="1" parent="1" source="oSqDqilmN8L3rwGm9tbF-1" target="oSqDqilmN8L3rwGm9tbF-5">
          <mxGeometry relative="1" as="geometry" />
        </mxCell>
        <mxCell id="oSqDqilmN8L3rwGm9tbF-48" value="" style="group" vertex="1" connectable="0" parent="1">
          <mxGeometry x="660" y="310" width="290" height="460" as="geometry" />
        </mxCell>
        <mxCell id="oSqDqilmN8L3rwGm9tbF-47" value="" style="rounded=0;whiteSpace=wrap;html=1;labelBackgroundColor=none;fillColor=#f5f5f5;strokeColor=#666666;fontColor=#333333;" vertex="1" parent="oSqDqilmN8L3rwGm9tbF-48">
          <mxGeometry width="290" height="459.99999999999994" as="geometry" />
        </mxCell>
        <mxCell id="oSqDqilmN8L3rwGm9tbF-21" value="" style="group" vertex="1" connectable="0" parent="oSqDqilmN8L3rwGm9tbF-48">
          <mxGeometry x="52.72727272727273" y="40.888888888888886" width="158.1818181818182" height="71.55555555555554" as="geometry" />
        </mxCell>
        <mxCell id="oSqDqilmN8L3rwGm9tbF-14" value="User-Service" style="rounded=1;whiteSpace=wrap;html=1;verticalAlign=bottom;spacingBottom=6;" vertex="1" parent="oSqDqilmN8L3rwGm9tbF-21">
          <mxGeometry width="158.1818181818182" height="71.55555555555554" as="geometry" />
        </mxCell>
        <mxCell id="oSqDqilmN8L3rwGm9tbF-18" value="" style="points=[];aspect=fixed;html=1;align=center;shadow=0;dashed=0;fillColor=#FF6A00;strokeColor=none;shape=mxgraph.alibaba_cloud.ahas_application_high_availability_service;" vertex="1" parent="oSqDqilmN8L3rwGm9tbF-21">
          <mxGeometry x="59.31818181818181" y="10.222222222222221" width="30" height="34.65" as="geometry" />
        </mxCell>
        <mxCell id="oSqDqilmN8L3rwGm9tbF-22" value="" style="group" vertex="1" connectable="0" parent="oSqDqilmN8L3rwGm9tbF-48">
          <mxGeometry x="52.72727272727273" y="184" width="158.1818181818182" height="71.55555555555554" as="geometry" />
        </mxCell>
        <mxCell id="oSqDqilmN8L3rwGm9tbF-23" value="Order-Service" style="rounded=1;whiteSpace=wrap;html=1;verticalAlign=bottom;spacingBottom=6;" vertex="1" parent="oSqDqilmN8L3rwGm9tbF-22">
          <mxGeometry width="158.1818181818182" height="71.55555555555554" as="geometry" />
        </mxCell>
        <mxCell id="oSqDqilmN8L3rwGm9tbF-24" value="" style="points=[];aspect=fixed;html=1;align=center;shadow=0;dashed=0;fillColor=#FF6A00;strokeColor=none;shape=mxgraph.alibaba_cloud.ahas_application_high_availability_service;" vertex="1" parent="oSqDqilmN8L3rwGm9tbF-22">
          <mxGeometry x="59.31818181818181" y="10.222222222222221" width="30" height="34.65" as="geometry" />
        </mxCell>
        <mxCell id="oSqDqilmN8L3rwGm9tbF-25" value="" style="group" vertex="1" connectable="0" parent="oSqDqilmN8L3rwGm9tbF-48">
          <mxGeometry x="52.72727272727273" y="337.3333333333333" width="158.1818181818182" height="71.55555555555554" as="geometry" />
        </mxCell>
        <mxCell id="oSqDqilmN8L3rwGm9tbF-26" value="Payment-Service" style="rounded=1;whiteSpace=wrap;html=1;verticalAlign=bottom;spacingBottom=6;" vertex="1" parent="oSqDqilmN8L3rwGm9tbF-25">
          <mxGeometry width="158.1818181818182" height="71.55555555555554" as="geometry" />
        </mxCell>
        <mxCell id="oSqDqilmN8L3rwGm9tbF-27" value="" style="points=[];aspect=fixed;html=1;align=center;shadow=0;dashed=0;fillColor=#FF6A00;strokeColor=none;shape=mxgraph.alibaba_cloud.ahas_application_high_availability_service;" vertex="1" parent="oSqDqilmN8L3rwGm9tbF-25">
          <mxGeometry x="59.31818181818181" y="10.222222222222221" width="30" height="34.65" as="geometry" />
        </mxCell>
        <mxCell id="oSqDqilmN8L3rwGm9tbF-28" value="" style="group" vertex="1" connectable="0" parent="oSqDqilmN8L3rwGm9tbF-48">
          <mxGeometry x="65.9090909090909" y="51.11111111111111" width="158.1818181818182" height="71.55555555555554" as="geometry" />
        </mxCell>
        <mxCell id="oSqDqilmN8L3rwGm9tbF-29" value="User-Service" style="rounded=1;whiteSpace=wrap;html=1;verticalAlign=bottom;spacingBottom=6;" vertex="1" parent="oSqDqilmN8L3rwGm9tbF-28">
          <mxGeometry width="158.1818181818182" height="71.55555555555554" as="geometry" />
        </mxCell>
        <mxCell id="oSqDqilmN8L3rwGm9tbF-30" value="" style="points=[];aspect=fixed;html=1;align=center;shadow=0;dashed=0;fillColor=#FF6A00;strokeColor=none;shape=mxgraph.alibaba_cloud.ahas_application_high_availability_service;" vertex="1" parent="oSqDqilmN8L3rwGm9tbF-28">
          <mxGeometry x="59.31818181818181" y="10.222222222222221" width="30" height="34.65" as="geometry" />
        </mxCell>
        <mxCell id="oSqDqilmN8L3rwGm9tbF-31" value="" style="group" vertex="1" connectable="0" parent="oSqDqilmN8L3rwGm9tbF-48">
          <mxGeometry x="79.0909090909091" y="61.33333333333333" width="158.1818181818182" height="71.55555555555554" as="geometry" />
        </mxCell>
        <mxCell id="oSqDqilmN8L3rwGm9tbF-32" value="User-Service" style="rounded=1;whiteSpace=wrap;html=1;verticalAlign=bottom;spacingBottom=6;" vertex="1" parent="oSqDqilmN8L3rwGm9tbF-31">
          <mxGeometry width="158.1818181818182" height="71.55555555555554" as="geometry" />
        </mxCell>
        <mxCell id="oSqDqilmN8L3rwGm9tbF-33" value="" style="points=[];aspect=fixed;html=1;align=center;shadow=0;dashed=0;fillColor=#FF6A00;strokeColor=none;shape=mxgraph.alibaba_cloud.ahas_application_high_availability_service;" vertex="1" parent="oSqDqilmN8L3rwGm9tbF-31">
          <mxGeometry x="59.31818181818181" y="10.222222222222221" width="30" height="34.65" as="geometry" />
        </mxCell>
        <mxCell id="oSqDqilmN8L3rwGm9tbF-34" value="" style="group" vertex="1" connectable="0" parent="oSqDqilmN8L3rwGm9tbF-48">
          <mxGeometry x="65.9090909090909" y="194.2222222222222" width="158.1818181818182" height="71.55555555555554" as="geometry" />
        </mxCell>
        <mxCell id="oSqDqilmN8L3rwGm9tbF-35" value="Order-Service" style="rounded=1;whiteSpace=wrap;html=1;verticalAlign=bottom;spacingBottom=6;" vertex="1" parent="oSqDqilmN8L3rwGm9tbF-34">
          <mxGeometry width="158.1818181818182" height="71.55555555555554" as="geometry" />
        </mxCell>
        <mxCell id="oSqDqilmN8L3rwGm9tbF-36" value="" style="points=[];aspect=fixed;html=1;align=center;shadow=0;dashed=0;fillColor=#FF6A00;strokeColor=none;shape=mxgraph.alibaba_cloud.ahas_application_high_availability_service;" vertex="1" parent="oSqDqilmN8L3rwGm9tbF-34">
          <mxGeometry x="59.31818181818181" y="10.222222222222221" width="30" height="34.65" as="geometry" />
        </mxCell>
        <mxCell id="oSqDqilmN8L3rwGm9tbF-37" value="" style="group" vertex="1" connectable="0" parent="oSqDqilmN8L3rwGm9tbF-48">
          <mxGeometry x="79.0909090909091" y="204.44444444444443" width="158.1818181818182" height="71.55555555555554" as="geometry" />
        </mxCell>
        <mxCell id="oSqDqilmN8L3rwGm9tbF-38" value="Order-Service" style="rounded=1;whiteSpace=wrap;html=1;verticalAlign=bottom;spacingBottom=6;" vertex="1" parent="oSqDqilmN8L3rwGm9tbF-37">
          <mxGeometry width="158.1818181818182" height="71.55555555555554" as="geometry" />
        </mxCell>
        <mxCell id="oSqDqilmN8L3rwGm9tbF-39" value="" style="points=[];aspect=fixed;html=1;align=center;shadow=0;dashed=0;fillColor=#FF6A00;strokeColor=none;shape=mxgraph.alibaba_cloud.ahas_application_high_availability_service;" vertex="1" parent="oSqDqilmN8L3rwGm9tbF-37">
          <mxGeometry x="59.31818181818181" y="10.222222222222221" width="30" height="34.65" as="geometry" />
        </mxCell>
        <mxCell id="oSqDqilmN8L3rwGm9tbF-40" value="" style="group" vertex="1" connectable="0" parent="oSqDqilmN8L3rwGm9tbF-48">
          <mxGeometry x="65.9090909090909" y="347.55555555555554" width="158.1818181818182" height="71.55555555555554" as="geometry" />
        </mxCell>
        <mxCell id="oSqDqilmN8L3rwGm9tbF-41" value="Payment-Service" style="rounded=1;whiteSpace=wrap;html=1;verticalAlign=bottom;spacingBottom=6;" vertex="1" parent="oSqDqilmN8L3rwGm9tbF-40">
          <mxGeometry width="158.1818181818182" height="71.55555555555554" as="geometry" />
        </mxCell>
        <mxCell id="oSqDqilmN8L3rwGm9tbF-42" value="" style="points=[];aspect=fixed;html=1;align=center;shadow=0;dashed=0;fillColor=#FF6A00;strokeColor=none;shape=mxgraph.alibaba_cloud.ahas_application_high_availability_service;" vertex="1" parent="oSqDqilmN8L3rwGm9tbF-40">
          <mxGeometry x="59.31818181818181" y="10.222222222222221" width="30" height="34.65" as="geometry" />
        </mxCell>
        <mxCell id="oSqDqilmN8L3rwGm9tbF-43" value="" style="group" vertex="1" connectable="0" parent="oSqDqilmN8L3rwGm9tbF-48">
          <mxGeometry x="79.0909090909091" y="357.77777777777777" width="158.1818181818182" height="71.55555555555554" as="geometry" />
        </mxCell>
        <mxCell id="oSqDqilmN8L3rwGm9tbF-44" value="Payment-Service" style="rounded=1;whiteSpace=wrap;html=1;verticalAlign=bottom;spacingBottom=6;" vertex="1" parent="oSqDqilmN8L3rwGm9tbF-43">
          <mxGeometry width="158.1818181818182" height="71.55555555555554" as="geometry" />
        </mxCell>
        <mxCell id="oSqDqilmN8L3rwGm9tbF-45" value="" style="points=[];aspect=fixed;html=1;align=center;shadow=0;dashed=0;fillColor=#FF6A00;strokeColor=none;shape=mxgraph.alibaba_cloud.ahas_application_high_availability_service;" vertex="1" parent="oSqDqilmN8L3rwGm9tbF-43">
          <mxGeometry x="59.31818181818181" y="10.222222222222221" width="30" height="34.65" as="geometry" />
        </mxCell>
        <mxCell id="oSqDqilmN8L3rwGm9tbF-80" value="" style="endArrow=classic;startArrow=classic;html=1;rounded=0;entryX=0.5;entryY=1;entryDx=0;entryDy=0;" edge="1" parent="oSqDqilmN8L3rwGm9tbF-48" source="oSqDqilmN8L3rwGm9tbF-38" target="oSqDqilmN8L3rwGm9tbF-32">
          <mxGeometry width="50" height="50" relative="1" as="geometry">
            <mxPoint x="120" y="190" as="sourcePoint" />
            <mxPoint x="170" y="140" as="targetPoint" />
          </mxGeometry>
        </mxCell>
        <mxCell id="oSqDqilmN8L3rwGm9tbF-81" value="" style="endArrow=classic;startArrow=classic;html=1;rounded=0;entryX=0.5;entryY=1;entryDx=0;entryDy=0;exitX=0.5;exitY=0;exitDx=0;exitDy=0;" edge="1" parent="oSqDqilmN8L3rwGm9tbF-48" source="oSqDqilmN8L3rwGm9tbF-44">
          <mxGeometry width="50" height="50" relative="1" as="geometry">
            <mxPoint x="158.02999999999997" y="347" as="sourcePoint" />
            <mxPoint x="158.02999999999997" y="276" as="targetPoint" />
          </mxGeometry>
        </mxCell>
        <mxCell id="oSqDqilmN8L3rwGm9tbF-82" value="REST or gRPC" style="text;html=1;align=center;verticalAlign=middle;whiteSpace=wrap;rounded=0;" vertex="1" parent="oSqDqilmN8L3rwGm9tbF-48">
          <mxGeometry x="160" y="145" width="60" height="30" as="geometry" />
        </mxCell>
        <mxCell id="oSqDqilmN8L3rwGm9tbF-84" value="REST or gRPC" style="text;html=1;align=center;verticalAlign=middle;whiteSpace=wrap;rounded=0;" vertex="1" parent="oSqDqilmN8L3rwGm9tbF-48">
          <mxGeometry x="160" y="290" width="60" height="30" as="geometry" />
        </mxCell>
        <mxCell id="oSqDqilmN8L3rwGm9tbF-46" style="edgeStyle=orthogonalEdgeStyle;rounded=0;orthogonalLoop=1;jettySize=auto;html=1;exitX=1;exitY=0.5;exitDx=0;exitDy=0;entryX=0;entryY=0.5;entryDx=0;entryDy=0;" edge="1" parent="1" source="oSqDqilmN8L3rwGm9tbF-5" target="oSqDqilmN8L3rwGm9tbF-47">
          <mxGeometry relative="1" as="geometry">
            <mxPoint x="560" y="540" as="targetPoint" />
            <Array as="points">
              <mxPoint x="590" y="540" />
              <mxPoint x="590" y="540" />
            </Array>
          </mxGeometry>
        </mxCell>
        <mxCell id="oSqDqilmN8L3rwGm9tbF-8" value="" style="group" vertex="1" connectable="0" parent="1">
          <mxGeometry x="270" y="360" width="210" height="360" as="geometry" />
        </mxCell>
        <mxCell id="oSqDqilmN8L3rwGm9tbF-5" value="&lt;font style=&quot;font-size: 18px;&quot;&gt;API Gateway&lt;br&gt;(Spring Cloud Gateway)&lt;/font&gt;" style="rounded=1;whiteSpace=wrap;html=1;labelPosition=center;verticalLabelPosition=middle;align=center;verticalAlign=bottom;spacingBottom=50;movable=1;resizable=1;rotatable=1;deletable=1;editable=1;locked=0;connectable=1;fillColor=#f5f5f5;strokeColor=#666666;fontColor=#333333;" vertex="1" parent="oSqDqilmN8L3rwGm9tbF-8">
          <mxGeometry width="210" height="360" as="geometry" />
        </mxCell>
        <mxCell id="oSqDqilmN8L3rwGm9tbF-6" value="" style="sketch=0;points=[[0,0,0],[0.25,0,0],[0.5,0,0],[0.75,0,0],[1,0,0],[0,1,0],[0.25,1,0],[0.5,1,0],[0.75,1,0],[1,1,0],[0,0.25,0],[0,0.5,0],[0,0.75,0],[1,0.25,0],[1,0.5,0],[1,0.75,0]];outlineConnect=0;fillColor=#d5e8d4;strokeColor=#82b366;dashed=0;verticalLabelPosition=bottom;verticalAlign=top;align=center;html=1;fontSize=12;fontStyle=0;aspect=fixed;shape=mxgraph.aws4.resourceIcon;resIcon=mxgraph.aws4.api_gateway;fillStyle=solid;movable=1;resizable=1;rotatable=1;deletable=1;editable=1;locked=0;connectable=1;" vertex="1" parent="oSqDqilmN8L3rwGm9tbF-8">
          <mxGeometry x="66" y="141" width="78" height="78" as="geometry" />
        </mxCell>
        <mxCell id="oSqDqilmN8L3rwGm9tbF-54" value="" style="group" vertex="1" connectable="0" parent="1">
          <mxGeometry x="620" y="30" width="360" height="210" as="geometry" />
        </mxCell>
        <mxCell id="oSqDqilmN8L3rwGm9tbF-49" value="" style="rounded=0;whiteSpace=wrap;html=1;fillColor=#f5f5f5;fontColor=#333333;strokeColor=#666666;" vertex="1" parent="oSqDqilmN8L3rwGm9tbF-54">
          <mxGeometry width="360" height="210" as="geometry" />
        </mxCell>
        <mxCell id="oSqDqilmN8L3rwGm9tbF-50" value="&lt;font style=&quot;font-size: 15px;&quot;&gt;Service Discovery&lt;/font&gt;" style="rounded=1;whiteSpace=wrap;html=1;verticalAlign=bottom;spacingBottom=14;" vertex="1" parent="oSqDqilmN8L3rwGm9tbF-54">
          <mxGeometry x="40" y="40" width="120" height="120" as="geometry" />
        </mxCell>
        <mxCell id="oSqDqilmN8L3rwGm9tbF-51" value="&lt;font style=&quot;font-size: 15px;&quot;&gt;Config Server&lt;/font&gt;" style="rounded=1;whiteSpace=wrap;html=1;verticalAlign=bottom;spacingBottom=14;" vertex="1" parent="oSqDqilmN8L3rwGm9tbF-54">
          <mxGeometry x="200" y="40" width="120" height="120" as="geometry" />
        </mxCell>
        <mxCell id="oSqDqilmN8L3rwGm9tbF-52" value="" style="image;aspect=fixed;perimeter=ellipsePerimeter;html=1;align=center;shadow=0;dashed=0;fontColor=#4277BB;labelBackgroundColor=default;fontSize=12;spacingTop=3;image=img/lib/ibm/infrastructure/service_discovery_configuration.svg;" vertex="1" parent="oSqDqilmN8L3rwGm9tbF-54">
          <mxGeometry x="80" y="60" width="40" height="40" as="geometry" />
        </mxCell>
        <mxCell id="oSqDqilmN8L3rwGm9tbF-53" value="" style="sketch=0;pointerEvents=1;shadow=0;dashed=0;html=1;strokeColor=none;labelPosition=center;verticalLabelPosition=bottom;verticalAlign=top;align=center;fillColor=#505050;shape=mxgraph.mscae.oms.config_assessment" vertex="1" parent="oSqDqilmN8L3rwGm9tbF-54">
          <mxGeometry x="240" y="65" width="50" height="45" as="geometry" />
        </mxCell>
        <mxCell id="oSqDqilmN8L3rwGm9tbF-58" value="" style="endArrow=classic;startArrow=classic;html=1;rounded=0;exitX=0.207;exitY=0;exitDx=0;exitDy=0;exitPerimeter=0;dashed=1;" edge="1" parent="oSqDqilmN8L3rwGm9tbF-54" source="oSqDqilmN8L3rwGm9tbF-47">
          <mxGeometry width="50" height="50" relative="1" as="geometry">
            <mxPoint x="50" y="210" as="sourcePoint" />
            <mxPoint x="100" y="160" as="targetPoint" />
          </mxGeometry>
        </mxCell>
        <mxCell id="oSqDqilmN8L3rwGm9tbF-59" value="" style="endArrow=classic;startArrow=classic;html=1;rounded=0;exitX=0.207;exitY=0;exitDx=0;exitDy=0;exitPerimeter=0;dashed=1;" edge="1" parent="oSqDqilmN8L3rwGm9tbF-54">
          <mxGeometry width="50" height="50" relative="1" as="geometry">
            <mxPoint x="259.79999999999995" y="280" as="sourcePoint" />
            <mxPoint x="259.79999999999995" y="160" as="targetPoint" />
          </mxGeometry>
        </mxCell>
        <mxCell id="oSqDqilmN8L3rwGm9tbF-60" value="Register Service" style="text;html=1;align=center;verticalAlign=middle;resizable=0;points=[];autosize=1;strokeColor=none;fillColor=none;" vertex="1" parent="1">
          <mxGeometry x="610" y="260" width="110" height="30" as="geometry" />
        </mxCell>
        <mxCell id="oSqDqilmN8L3rwGm9tbF-64" value="Obtain Configurations" style="text;html=1;align=center;verticalAlign=middle;resizable=0;points=[];autosize=1;strokeColor=none;fillColor=none;" vertex="1" parent="1">
          <mxGeometry x="880" y="260" width="140" height="30" as="geometry" />
        </mxCell>
        <mxCell id="oSqDqilmN8L3rwGm9tbF-66" value="" style="endArrow=classic;html=1;rounded=0;entryX=0.002;entryY=0.197;entryDx=0;entryDy=0;entryPerimeter=0;" edge="1" parent="1" target="oSqDqilmN8L3rwGm9tbF-47">
          <mxGeometry width="50" height="50" relative="1" as="geometry">
            <mxPoint x="590" y="540" as="sourcePoint" />
            <mxPoint x="590" y="400" as="targetPoint" />
            <Array as="points">
              <mxPoint x="590" y="400" />
            </Array>
          </mxGeometry>
        </mxCell>
        <mxCell id="oSqDqilmN8L3rwGm9tbF-69" value="" style="endArrow=classic;html=1;rounded=0;entryX=0.002;entryY=0.197;entryDx=0;entryDy=0;entryPerimeter=0;" edge="1" parent="1">
          <mxGeometry width="50" height="50" relative="1" as="geometry">
            <mxPoint x="589" y="540" as="sourcePoint" />
            <mxPoint x="660" y="679" as="targetPoint" />
            <Array as="points">
              <mxPoint x="589" y="680" />
            </Array>
          </mxGeometry>
        </mxCell>
        <mxCell id="oSqDqilmN8L3rwGm9tbF-72" value="" style="group" vertex="1" connectable="0" parent="1">
          <mxGeometry x="1050" y="430" width="120.00000000000011" height="130" as="geometry" />
        </mxCell>
        <mxCell id="oSqDqilmN8L3rwGm9tbF-71" value="Message Queue&lt;br&gt;(Kafka)" style="rounded=1;whiteSpace=wrap;html=1;verticalAlign=bottom;spacingBottom=10;fillColor=#f5f5f5;fontColor=#333333;strokeColor=#666666;" vertex="1" parent="oSqDqilmN8L3rwGm9tbF-72">
          <mxGeometry width="120" height="130" as="geometry" />
        </mxCell>
        <mxCell id="oSqDqilmN8L3rwGm9tbF-70" value="" style="points=[];aspect=fixed;html=1;align=center;shadow=0;dashed=0;fillColor=#000000;strokeColor=none;shape=mxgraph.alibaba_cloud.kafka;" vertex="1" parent="oSqDqilmN8L3rwGm9tbF-72">
          <mxGeometry x="31.649999999999977" y="34" width="56.699999999999996" height="42" as="geometry" />
        </mxCell>
        <mxCell id="oSqDqilmN8L3rwGm9tbF-73" value="" style="endArrow=classic;startArrow=classic;html=1;rounded=0;entryX=0.5;entryY=0;entryDx=0;entryDy=0;exitX=1.001;exitY=0.212;exitDx=0;exitDy=0;exitPerimeter=0;" edge="1" parent="1" source="oSqDqilmN8L3rwGm9tbF-47" target="oSqDqilmN8L3rwGm9tbF-71">
          <mxGeometry width="50" height="50" relative="1" as="geometry">
            <mxPoint x="950" y="410" as="sourcePoint" />
            <mxPoint x="950" y="371.33000000000004" as="targetPoint" />
            <Array as="points">
              <mxPoint x="1110" y="407" />
            </Array>
          </mxGeometry>
        </mxCell>
        <mxCell id="oSqDqilmN8L3rwGm9tbF-74" value="" style="endArrow=classic;startArrow=classic;html=1;rounded=0;exitX=0.998;exitY=0.596;exitDx=0;exitDy=0;entryX=0.5;entryY=1;entryDx=0;entryDy=0;exitPerimeter=0;" edge="1" parent="1" source="oSqDqilmN8L3rwGm9tbF-47" target="oSqDqilmN8L3rwGm9tbF-71">
          <mxGeometry width="50" height="50" relative="1" as="geometry">
            <mxPoint x="910" y="708" as="sourcePoint" />
            <mxPoint x="1123" y="640" as="targetPoint" />
            <Array as="points">
              <mxPoint x="1110" y="584" />
            </Array>
          </mxGeometry>
        </mxCell>
        <mxCell id="oSqDqilmN8L3rwGm9tbF-76" value="Async Communication" style="text;html=1;align=center;verticalAlign=middle;resizable=0;points=[];autosize=1;strokeColor=none;fillColor=none;" vertex="1" parent="1">
          <mxGeometry x="960" y="380" width="140" height="30" as="geometry" />
        </mxCell>
        <mxCell id="oSqDqilmN8L3rwGm9tbF-77" value="Async Communication" style="text;html=1;align=center;verticalAlign=middle;resizable=0;points=[];autosize=1;strokeColor=none;fillColor=none;" vertex="1" parent="1">
          <mxGeometry x="960" y="560" width="140" height="30" as="geometry" />
        </mxCell>
        <mxCell id="oSqDqilmN8L3rwGm9tbF-87" value="" style="endArrow=classic;html=1;rounded=0;exitX=1.008;exitY=0.109;exitDx=0;exitDy=0;exitPerimeter=0;" edge="1" parent="1" source="oSqDqilmN8L3rwGm9tbF-47">
          <mxGeometry width="50" height="50" relative="1" as="geometry">
            <mxPoint x="1150" y="330" as="sourcePoint" />
            <mxPoint x="1260" y="360" as="targetPoint" />
          </mxGeometry>
        </mxCell>
        <mxCell id="oSqDqilmN8L3rwGm9tbF-93" value="&lt;span style=&quot;text-wrap-mode: nowrap;&quot;&gt;Aggregate logs&lt;/span&gt;" style="text;html=1;align=center;verticalAlign=middle;whiteSpace=wrap;rounded=0;" vertex="1" parent="1">
          <mxGeometry x="1039" y="330" width="142" height="30" as="geometry" />
        </mxCell>
        <mxCell id="oSqDqilmN8L3rwGm9tbF-102" value="" style="shape=image;verticalLabelPosition=bottom;labelBackgroundColor=default;verticalAlign=top;aspect=fixed;imageAspect=0;image=https://miro.medium.com/v2/resize:fit:1200/1*qk4O8GKrhT4Tw1jVNoYT-Q.png;strokeWidth=1;dashed=1;imageBackground=none;imageBorder=default;" vertex="1" parent="1">
          <mxGeometry x="1260" y="290" width="300" height="150" as="geometry" />
        </mxCell>
        <mxCell id="oSqDqilmN8L3rwGm9tbF-103" value="ELK Stack" style="text;html=1;align=center;verticalAlign=middle;whiteSpace=wrap;rounded=0;" vertex="1" parent="1">
          <mxGeometry x="1380" y="250" width="60" height="30" as="geometry" />
        </mxCell>
        <mxCell id="oSqDqilmN8L3rwGm9tbF-104" value="" style="endArrow=classic;html=1;rounded=0;exitX=0.5;exitY=1;exitDx=0;exitDy=0;entryX=0.5;entryY=0;entryDx=0;entryDy=0;" edge="1" parent="1" source="oSqDqilmN8L3rwGm9tbF-47" target="oSqDqilmN8L3rwGm9tbF-106">
          <mxGeometry width="50" height="50" relative="1" as="geometry">
            <mxPoint x="810" y="860" as="sourcePoint" />
            <mxPoint x="805" y="840" as="targetPoint" />
          </mxGeometry>
        </mxCell>
        <mxCell id="oSqDqilmN8L3rwGm9tbF-106" value="Jenkins" style="whiteSpace=wrap;html=1;aspect=fixed;verticalAlign=bottom;spacingTop=0;spacingBottom=10;fillColor=#f5f5f5;fontColor=#333333;strokeColor=#666666;" vertex="1" parent="1">
          <mxGeometry x="762.5" y="920" width="85" height="85" as="geometry" />
        </mxCell>
        <mxCell id="oSqDqilmN8L3rwGm9tbF-107" value="Docker" style="whiteSpace=wrap;html=1;aspect=fixed;verticalAlign=bottom;spacingBottom=10;fillColor=#f5f5f5;fontColor=#333333;strokeColor=#666666;" vertex="1" parent="1">
          <mxGeometry x="622.5" y="920" width="85" height="85" as="geometry" />
        </mxCell>
        <mxCell id="oSqDqilmN8L3rwGm9tbF-108" value="SAGA&lt;br&gt;pattern" style="whiteSpace=wrap;html=1;aspect=fixed;verticalAlign=bottom;spacingBottom=5;fillColor=#f5f5f5;fontColor=#333333;strokeColor=#666666;" vertex="1" parent="1">
          <mxGeometry x="907.5" y="919.92" width="85" height="85" as="geometry" />
        </mxCell>
        <mxCell id="oSqDqilmN8L3rwGm9tbF-109" value="" style="endArrow=classic;html=1;rounded=0;entryX=0.5;entryY=0;entryDx=0;entryDy=0;" edge="1" parent="1" target="oSqDqilmN8L3rwGm9tbF-107">
          <mxGeometry width="50" height="50" relative="1" as="geometry">
            <mxPoint x="810" y="860" as="sourcePoint" />
            <mxPoint x="710" y="860" as="targetPoint" />
            <Array as="points">
              <mxPoint x="665" y="860" />
            </Array>
          </mxGeometry>
        </mxCell>
        <mxCell id="oSqDqilmN8L3rwGm9tbF-110" value="" style="endArrow=classic;html=1;rounded=0;entryX=0.5;entryY=0;entryDx=0;entryDy=0;" edge="1" parent="1" target="oSqDqilmN8L3rwGm9tbF-108">
          <mxGeometry width="50" height="50" relative="1" as="geometry">
            <mxPoint x="800" y="860" as="sourcePoint" />
            <mxPoint x="932" y="920" as="targetPoint" />
            <Array as="points">
              <mxPoint x="950" y="860" />
            </Array>
          </mxGeometry>
        </mxCell>
        <mxCell id="oSqDqilmN8L3rwGm9tbF-113" value="" style="endArrow=classic;html=1;rounded=0;" edge="1" parent="1">
          <mxGeometry width="50" height="50" relative="1" as="geometry">
            <mxPoint x="1080" y="680" as="sourcePoint" />
            <mxPoint x="1080" y="760" as="targetPoint" />
          </mxGeometry>
        </mxCell>
        <mxCell id="oSqDqilmN8L3rwGm9tbF-114" value="" style="endArrow=classic;html=1;rounded=0;" edge="1" parent="1">
          <mxGeometry width="50" height="50" relative="1" as="geometry">
            <mxPoint x="1200" y="680" as="sourcePoint" />
            <mxPoint x="1200" y="760" as="targetPoint" />
          </mxGeometry>
        </mxCell>
        <mxCell id="oSqDqilmN8L3rwGm9tbF-115" value="" style="endArrow=classic;html=1;rounded=0;" edge="1" parent="1">
          <mxGeometry width="50" height="50" relative="1" as="geometry">
            <mxPoint x="1320" y="680" as="sourcePoint" />
            <mxPoint x="1320" y="760" as="targetPoint" />
          </mxGeometry>
        </mxCell>
        <mxCell id="oSqDqilmN8L3rwGm9tbF-116" value="Containerization" style="text;html=1;align=center;verticalAlign=middle;whiteSpace=wrap;rounded=0;" vertex="1" parent="1">
          <mxGeometry x="560" y="870" width="110" height="30" as="geometry" />
        </mxCell>
        <mxCell id="oSqDqilmN8L3rwGm9tbF-117" value="CI/CD" style="text;html=1;align=center;verticalAlign=middle;whiteSpace=wrap;rounded=0;" vertex="1" parent="1">
          <mxGeometry x="720" y="870" width="110" height="30" as="geometry" />
        </mxCell>
        <mxCell id="oSqDqilmN8L3rwGm9tbF-118" value="Distributed Transaction" style="text;html=1;align=center;verticalAlign=middle;whiteSpace=wrap;rounded=0;" vertex="1" parent="1">
          <mxGeometry x="929" y="870" width="181" height="30" as="geometry" />
        </mxCell>
        <mxCell id="oSqDqilmN8L3rwGm9tbF-121" value="" style="shape=image;verticalLabelPosition=bottom;labelBackgroundColor=default;verticalAlign=top;aspect=fixed;imageAspect=0;image=https://miro.medium.com/v2/resize:fit:400/1*OARpkeBkn_Tw3vk8H769OQ.png;" vertex="1" parent="1">
          <mxGeometry x="647.55" y="940" width="34.91" height="29.85" as="geometry" />
        </mxCell>
        <mxCell id="oSqDqilmN8L3rwGm9tbF-122" value="" style="shape=image;verticalLabelPosition=bottom;labelBackgroundColor=default;verticalAlign=top;aspect=fixed;imageAspect=0;image=https://www.stonebranch.com/integration-hub/media/c0/79/40/1625585261/jenkins_vendor_product_logo.svg;" vertex="1" parent="1">
          <mxGeometry x="752.5" y="919.92" width="105" height="70" as="geometry" />
        </mxCell>
        <mxCell id="oSqDqilmN8L3rwGm9tbF-135" value="" style="points=[];aspect=fixed;html=1;align=center;shadow=0;dashed=0;fillColor=#FF6A00;strokeColor=none;shape=mxgraph.alibaba_cloud.gts_global_transaction_service;" vertex="1" parent="1">
          <mxGeometry x="935.26" y="930" width="29.48" height="29.85" as="geometry" />
        </mxCell>
        <mxCell id="oSqDqilmN8L3rwGm9tbF-136" value="" style="rounded=0;whiteSpace=wrap;html=1;fillColor=#f5f5f5;fontColor=#333333;strokeColor=#666666;" vertex="1" parent="1">
          <mxGeometry x="1030" y="760" width="341" height="80" as="geometry" />
        </mxCell>
        <mxCell id="oSqDqilmN8L3rwGm9tbF-137" value="" style="endArrow=none;html=1;rounded=0;exitX=1.005;exitY=0.805;exitDx=0;exitDy=0;exitPerimeter=0;" edge="1" parent="1" source="oSqDqilmN8L3rwGm9tbF-47">
          <mxGeometry width="50" height="50" relative="1" as="geometry">
            <mxPoint x="1020" y="700" as="sourcePoint" />
            <mxPoint x="1320" y="680" as="targetPoint" />
          </mxGeometry>
        </mxCell>
        <mxCell id="oSqDqilmN8L3rwGm9tbF-138" value="" style="image;aspect=fixed;html=1;points=[];align=center;fontSize=12;image=img/lib/azure2/databases/Azure_Database_PostgreSQL_Server.svg;" vertex="1" parent="1">
          <mxGeometry x="1062" y="770" width="31.5" height="42" as="geometry" />
        </mxCell>
        <mxCell id="oSqDqilmN8L3rwGm9tbF-139" value="" style="dashed=0;outlineConnect=0;html=1;align=center;labelPosition=center;verticalLabelPosition=bottom;verticalAlign=top;shape=mxgraph.weblogos.mongodb" vertex="1" parent="1">
          <mxGeometry x="1188.25" y="771.45" width="24.5" height="39.1" as="geometry" />
        </mxCell>
        <mxCell id="oSqDqilmN8L3rwGm9tbF-140" value="" style="image;sketch=0;aspect=fixed;html=1;points=[];align=center;fontSize=12;image=img/lib/mscae/Cache_Redis_Product.svg;" vertex="1" parent="1">
          <mxGeometry x="1300" y="771.45" width="45.89" height="38.55" as="geometry" />
        </mxCell>
        <mxCell id="oSqDqilmN8L3rwGm9tbF-141" value="Postgres" style="text;html=1;align=center;verticalAlign=middle;whiteSpace=wrap;rounded=0;" vertex="1" parent="1">
          <mxGeometry x="1048" y="811" width="60" height="30" as="geometry" />
        </mxCell>
        <mxCell id="oSqDqilmN8L3rwGm9tbF-143" value="MongoDB" style="text;html=1;align=center;verticalAlign=middle;whiteSpace=wrap;rounded=0;" vertex="1" parent="1">
          <mxGeometry x="1170" y="811" width="60" height="30" as="geometry" />
        </mxCell>
        <mxCell id="oSqDqilmN8L3rwGm9tbF-144" value="Redis" style="text;html=1;align=center;verticalAlign=middle;whiteSpace=wrap;rounded=0;" vertex="1" parent="1">
          <mxGeometry x="1292.95" y="811" width="60" height="30" as="geometry" />
        </mxCell>
        <mxCell id="oSqDqilmN8L3rwGm9tbF-145" value="SQL Database" style="text;html=1;align=center;verticalAlign=middle;whiteSpace=wrap;rounded=0;" vertex="1" parent="1">
          <mxGeometry x="985.5" y="710" width="89" height="30" as="geometry" />
        </mxCell>
        <mxCell id="oSqDqilmN8L3rwGm9tbF-146" value="NoSQL Database" style="text;html=1;align=center;verticalAlign=middle;whiteSpace=wrap;rounded=0;" vertex="1" parent="1">
          <mxGeometry x="1099.25" y="710" width="100.75" height="30" as="geometry" />
        </mxCell>
        <mxCell id="oSqDqilmN8L3rwGm9tbF-147" value="In-Memory Database" style="text;html=1;align=center;verticalAlign=middle;whiteSpace=wrap;rounded=0;" vertex="1" parent="1">
          <mxGeometry x="1330" y="710" width="117.25" height="30" as="geometry" />
        </mxCell>
        <mxCell id="oSqDqilmN8L3rwGm9tbF-148" value="Load Balancing" style="text;html=1;align=center;verticalAlign=middle;whiteSpace=wrap;rounded=0;" vertex="1" parent="1">
          <mxGeometry x="490" y="500" width="80" height="30" as="geometry" />
        </mxCell>
      </root>
    </mxGraphModel>
  </diagram>
</mxfile>
